<?xml version="1.0" encoding="utf-8"?>
<!-- Generator: Adobe Illustrator 21.1.0, SVG Export Plug-In . SVG Version: 6.00 Build 0)  -->
<svg version="1.1" id="Layer_1" xmlns="http://www.w3.org/2000/svg" xmlns:xlink="http://www.w3.org/1999/xlink" x="0px" y="0px"
	 viewBox="0 0 515.7 254.2" style="enable-background:new 0 0 515.7 254.2;" xml:space="preserve">
<style type="text/css">
	.st0{fill:#FDB913;}
</style>
<title>digit-logo-site-id</title>
<g>
	<path d="M126.8,14.4v185.5H94.2v-8.5c-8.8,7.1-20.2,11.2-33.6,11.2C25.1,202.6,0,174.3,0,138.8c0-36.3,25.1-64.3,60.6-64.3
		c12.9,0,24.4,3.9,33.1,10.7V14.4H126.8z M94.7,138.8c0-18.3-12.7-32.1-31.2-32.1c-17.8,0-30.4,13.9-30.4,32.1
		c0,17.8,12.7,31.6,30.4,31.6C82,170.4,94.7,156.5,94.7,138.8"/>
	<rect x="160" y="77.2" width="33.1" height="122.7"/>
	<path d="M340.4,77.2v119.1c0,33.1-24.6,57.9-60.6,57.9c-28,0-49.7-15.8-57-39.2l30.4-11.4c3.4,11.7,12.9,18.8,26.5,18.8
		c16.5,0,27.5-10.7,27.5-26.8v-10.2c-8.2,6.8-19.2,10.5-31.4,10.5c-33.4,0-58-26.5-58-60.4c0-34.1,24.4-60.9,57.7-60.9
		c12.4,0,23.9,4.1,32.1,11.2v-8.5H340.4z M308.2,135.6c0-16.3-12.2-29-28.5-29c-16.6,0-28.7,12.7-28.7,29
		c0,15.8,12.2,28.2,28.7,28.2C296.1,163.9,308.2,151.4,308.2,135.6"/>
	<rect x="373.5" y="77.2" width="33.1" height="122.7"/>
	<path d="M477,77.2h38.7v31.4H477v45.5c0,8.8,5.6,14.4,14.4,14.4h24.3v31.4h-31.2c-23.9,0-40.4-15.8-40.4-39.7v-51.6h-17.5v-17
		l32.1-39.7H477V77.2z"/>
	<rect x="176.5" y="14.7" width="163.9" height="25.9"/>
	<polygon class="st0" points="406.6,27.6 381.6,0 373.5,0 373.5,55.4 381.5,55.4 	"/>
</g>
</svg>
