<?xml version="1.0" encoding="UTF-8"?>
<svg width="155px" height="56px" viewBox="0 0 155 56" version="1.1" xmlns="http://www.w3.org/2000/svg" xmlns:xlink="http://www.w3.org/1999/xlink">
    <!-- Generator: sketchtool 48.2 (47327) - http://www.bohemiancoding.com/sketch -->
    <title>C68B082D-E9C5-44C4-8206-4C6A16E2DA5B</title>
    <desc>Created with sketchtool.</desc>
    <defs>
        <filter x="-3.7%" y="-7.0%" width="107.4%" height="122.0%" filterUnits="objectBoundingBox" id="filter-1">
            <feOffset dx="0" dy="2" in="SourceAlpha" result="shadowOffsetOuter1"></feOffset>
            <feGaussianBlur stdDeviation="1.5" in="shadowOffsetOuter1" result="shadowBlurOuter1"></feGaussianBlur>
            <feColorMatrix values="0 0 0 0 0   0 0 0 0 0   0 0 0 0 0  0 0 0 0.5 0" type="matrix" in="shadowBlurOuter1" result="shadowMatrixOuter1"></feColorMatrix>
            <feMerge>
                <feMergeNode in="shadowMatrixOuter1"></feMergeNode>
                <feMergeNode in="SourceGraphic"></feMergeNode>
            </feMerge>
        </filter>
        <linearGradient x1="58.9170878%" y1="9.59026547%" x2="90.8103723%" y2="60.8514694%" id="linearGradient-2">
            <stop stop-color="#FF177B" offset="0%"></stop>
            <stop stop-color="#FFEC73" offset="100%"></stop>
        </linearGradient>
        <linearGradient x1="37.1029741%" y1="-44.0352456%" x2="0%" y2="101.060094%" id="linearGradient-3">
            <stop stop-color="#064AA2" offset="0%"></stop>
            <stop stop-color="#63FFD4" offset="100%"></stop>
        </linearGradient>
        <path d="M14.0223426,12.7 L0.504400812,0 C0.189027487,0.0726186853 0,0.306462999 0,0.7 L0,12.7 L0,25 C0,25.3338867 0.135781831,25.5325411 0.302640487,25.6 L14.0223426,12.7 Z" id="path-4"></path>
        <path d="M0.659188363,12.8785198 L8.47256652,8.6238085 C10.396631,7.56695888 11.9236166,6.7282093 11.9236166,6.7282093 L17.605626,3.69446714 L13.8228046,0.0507964851 L0.103262604,12.9524017 C0.256179572,13.0011528 0.525700251,12.9745054 0.735969461,12.8716318" id="path-6"></path>
        <linearGradient x1="78.6453125%" y1="50%" x2="2.49516972%" y2="100%" id="linearGradient-8">
            <stop stop-color="#FF4521" offset="0%"></stop>
            <stop stop-color="#8A33DB" offset="100%"></stop>
        </linearGradient>
        <linearGradient x1="0%" y1="-24.1863374%" x2="64.2244373%" y2="100%" id="linearGradient-9">
            <stop stop-color="#00A3B5" offset="0%"></stop>
            <stop stop-color="#D6FFA1" offset="100%"></stop>
        </linearGradient>
        <path d="M0.820057245,0.214687426 C0.559825448,0.0765297171 0.301265152,0.0370077565 0.0921071101,0.092865807 L13.621272,12.8113403 L17.3641968,9.30020155 L11.7222749,6.20225581 C11.7222749,6.20225581 6.40458056,3.2817123 3.1937255,1.51823037 L0.820057245,0.214687426 Z" id="path-10"></path>
    </defs>
    <g id="desktop-mintpro-homepage-copy-31" stroke="none" stroke-width="1" fill="none" fill-rule="evenodd" transform="translate(-1153.000000, -571.000000)">
        <g id="Group-6" transform="translate(1156.000000, 542.000000)">
            <g id="Group-Copy-2" filter="url(#filter-1)" transform="translate(0.000000, 30.000000)">
                <g id="Play-Store">
                    <rect id="background" fill="#000000" x="0" y="0" width="149" height="50" rx="6.29999952"></rect>
                    <g id="icon" transform="translate(6.052810, 17.800000)">
                        <path d="M12.1237026,6.20225581 C12.1237026,6.20225581 1.84346986,0.556224806 1.23969581,0.224515504 C0.634917139,-0.107193798 0.033152319,0.0940232558 0.033152319,0.787325581 L0.033152319,12.8404264 L0.033152319,25.1385736 C0.033152319,25.6575543 0.46312785,25.8826783 0.988541874,25.5947984 C1.51295128,25.3069186 12.1237026,19.4785969 12.1237026,19.4785969 C12.1237026,19.4785969 13.5651547,18.6873586 14.2858807,18.2917395 C15.4457953,17.6550421 17.7656245,16.3816473 17.7656245,16.3816473 C17.7656245,16.3816473 22.5526184,13.7518798 23.1895448,13.4032364 C23.8254666,13.0535969 23.764185,12.5744612 23.2277202,12.2985349 C22.6902508,12.0236047 17.7656245,9.30020155 17.7656245,9.30020155 L12.1237026,6.20225581 Z" id="orange" fill="url(#linearGradient-2)"></path>
                        <g id="blue" transform="translate(0.000000, 0.100000)">
                            <mask id="mask-5" fill="white">
                                <use xlink:href="#path-4"></use>
                            </mask>
                            <use id="Clip-2" fill="url(#linearGradient-3)" xlink:href="#path-4"></use>
                            <path d="M17.7549086,9.2 L12.1056195,6.1 C12.085835,6.1451092 1.80961152,0.488708221 1.21056195,0.2 C0.601530135,-0.175928874 0,0.0256577526 0,0.7 L0,12.8 C0,12.795472 0,24.5952753 0,25.1 C0,25.6361409 0.429807843,25.8616784 0.907921462,25.6 C1.47922185,25.2848612 12.085835,19.4458347 12.1056195,19.4 L17.7549086,16.3 C17.7255566,16.343197 22.5106836,13.7085995 23.1015572,13.4 C23.7830354,13.009034 23.7217777,12.5290184 23.2024374,12.3 C22.6482623,11.97715 17.7255566,9.24874489 17.7549086,9.2" id="Fill-1" mask="url(#mask-5)"></path>
                        </g>
                        <g id="red" transform="translate(0.200086, 12.750388)">
                            <mask id="mask-7" fill="white">
                                <use xlink:href="#path-6"></use>
                            </mask>
                            <g id="Clip-8"></g>
                            <path d="M11.9055335,-6.5503876 C11.885749,-6.50527839 1.60952556,-12.1616794 1.01047598,-12.4503876 C0.40144417,-12.8263165 -0.200085965,-12.6247298 -0.200085965,-11.9503876 L-0.200085965,0.149612403 C-0.200085965,0.145084368 -0.200085965,11.9448877 -0.200085965,12.4496124 C-0.200085965,12.9857533 0.229721877,13.2112908 0.707835497,12.9496124 C1.27913589,12.6344736 11.885749,6.79544713 11.9055335,6.7496124 L17.5548226,3.6496124 C17.5254706,3.6928094 22.3105977,1.05821191 22.9014712,0.749612403 C23.5829494,0.358646437 23.5216917,-0.121369242 23.0023514,-0.350387597 C22.4481764,-0.673237581 17.5254706,-3.40164271 17.5548226,-3.4503876 L11.9055335,-6.5503876 Z" id="Fill-7" fill="url(#linearGradient-8)" mask="url(#mask-7)"></path>
                        </g>
                        <g id="green" transform="translate(0.401428, 0.000000)">
                            <mask id="mask-11" fill="white">
                                <use xlink:href="#path-10"></use>
                            </mask>
                            <use id="Clip-5" fill="url(#linearGradient-9)" xlink:href="#path-10"></use>
                            <path d="M17.3534809,9.3 L11.7041918,6.2 C11.6844073,6.2451092 1.40818382,0.588708221 0.809134249,0.3 C0.200102434,-0.0759288738 -0.401427701,0.125657753 -0.401427701,0.8 L-0.401427701,12.9 C-0.401427701,12.895472 -0.401427701,24.6952753 -0.401427701,25.2 C-0.401427701,25.7361409 0.0283801421,25.9616784 0.506493762,25.7 C1.07779415,25.3848612 11.6844073,19.5458347 11.7041918,19.5 L17.3534809,16.4 C17.3241289,16.443197 22.1092559,13.8085995 22.7001295,13.5 C23.3816077,13.109034 23.32035,12.6290184 22.8010097,12.4 C22.2468346,12.07715 17.3241289,9.34874489 17.3534809,9.3" id="Fill-4" mask="url(#mask-11)"></path>
                        </g>
                    </g>
                    <g id="Google-play" transform="translate(35.005416, 20.100000)" fill="#FFFFFF">
                        <path d="M67.0464964,14.7869801 L65.9293801,15.8380368 C65.6712113,15.979512 65.4144268,16.1437612 65.1583344,16.2603919 C64.3824438,16.6116643 63.5934025,16.7 62.8922631,16.7 C62.1461346,16.7 60.9764155,16.6516914 59.7831635,15.7911085 C58.1254846,14.6268716 57.4008125,12.6255161 57.4008125,10.8815762 C57.4008125,7.27085464 60.3486431,5.5 62.7531427,5.5 C63.5934025,5.5 64.4565029,5.70979728 65.1583344,6.15216588 C66.325285,6.9216526 66.6270587,7.92164027 66.7945569,8.45717543 L61.3037984,10.6690184 L59.5056148,10.8084232 C60.0877058,13.7690492 62.0963004,15.4909052 64.3159982,15.4909052 C65.4248089,15.4909052 66.2477651,15.129971 67.0028915,14.7579949 C67.0028915,14.7579949 67.1544705,14.679321 67.0464964,14.7869801 L67.0464964,14.7869801 Z M63.6916486,8.84775359 C64.132315,8.68517832 64.3615437,8.54483557 64.3615437,8.21829551 C64.3615437,7.28175081 63.3180401,6.2 62.0726784,6.2 C61.1502896,6.2 59.4184157,6.9295044 59.4184157,9.46262158 C59.4184157,9.85794349 59.4649457,10.2789717 59.4882107,10.7 L63.6916486,8.84775359 L63.6916486,8.84775359 Z" id="Fill-1"></path>
                        <path d="M55.5876046,14.660314 C55.5876046,15.5628579 55.7490355,15.7032995 56.5141075,15.7742087 C56.9128556,15.8210226 57.3102239,15.8416758 57.7034529,15.8884896 L56.8424883,16.4 L52.7397984,16.4 C53.2779013,15.7032995 53.3703446,15.6337671 53.3703446,15.169759 L53.3703446,14.6513643 L53.3613762,0.838519016 L51.549763,0.838519016 L53.2937684,0 L56.6231078,0 C55.901498,0.41719419 55.685567,0.671228276 55.5931236,1.48427504 L55.5876046,14.660314" id="Fill-2"></path>
                        <path d="M49.2223683,6.639776 C49.7561456,7.0782492 50.8698461,8.00888621 50.8698461,9.77379249 C50.8698461,11.4939566 49.8994045,12.3048223 48.9206981,13.0723225 C48.6204053,13.3745042 48.2691454,13.7021545 48.2691454,14.2087734 C48.2691454,14.7229641 48.6204053,15.0017422 48.8731747,15.2096212 L49.7127547,15.8573501 C50.7334746,16.7184646 51.6639689,17.5079918 51.6639689,19.1118262 C51.6639689,21.2966205 49.5481447,23.5 45.5499807,23.5 C42.1820182,23.5 40.5538253,21.8968539 40.5538253,20.1780664 C40.5538253,19.3417321 40.970516,18.1570973 42.3452507,17.3455433 C43.786105,16.4651552 45.738008,16.3474489 46.7835227,16.2786148 C46.4570577,15.8573501 46.0844467,15.4161235 46.0844467,14.6961188 C46.0844467,14.3023878 46.2029108,14.0676635 46.3172424,13.7909505 C46.0630956,13.8150424 45.8068825,13.8398227 45.5740867,13.8398227 C43.1090688,13.8398227 41.7157379,12.0019522 41.7157379,10.1909271 C41.7157379,9.12262192 42.2033693,7.93729875 43.2048043,7.0782492 C44.5299495,5.98791709 46.1099302,5.8 47.3655121,5.8 L52.155044,5.8 L50.6659776,6.639776 L49.2223683,6.639776 L49.2223683,6.639776 Z M47.587201,16.9252274 C47.3948742,16.9 47.2796169,16.9 47.0477138,16.9 C46.8352517,16.9 45.5695052,16.9462503 44.5891244,17.2784116 C44.0704669,17.4697197 42.5714286,18.0352348 42.5714286,19.7149619 C42.5714286,21.3911851 44.18989,22.6 46.6936103,22.6 C48.9432092,22.6 50.1374408,21.5117163 50.1374408,20.0464224 C50.1374408,18.8404106 49.3646619,18.2041185 47.587201,16.9252274 L47.587201,16.9252274 Z M48.2444461,12.4515284 C48.7793647,11.9169682 48.8259986,11.1786026 48.8259986,10.7593263 C48.8259986,9.09388646 47.8336561,6.5 45.9100065,6.5 C45.3099375,6.5 44.6598057,6.80124766 44.290849,7.26718653 C43.8992611,7.74959451 43.7819905,8.37542109 43.7819905,8.97723019 C43.7819905,10.5280724 44.6858658,13.1 46.67398,13.1 C47.2541609,13.1 47.8782326,12.8179663 48.2444461,12.4515284 L48.2444461,12.4515284 Z" id="Fill-3"></path>
                        <path d="M34.7367587,16.7 C31.0344184,16.7 29.0534868,13.8048704 29.0534868,11.18352 C29.0534868,8.12065722 31.5438008,5.5 35.0860101,5.5 C38.5101918,5.5 40.6547055,8.19204778 40.6547055,11.0185593 C40.6547055,13.7792252 38.5350397,16.7 34.7367587,16.7 L34.7367587,16.7 Z M37.6321791,14.8065395 C38.1973296,14.0558479 38.3344617,13.1188737 38.3344617,12.2055323 C38.3344617,10.1397404 37.3537593,6.2 34.4552851,6.2 C33.6844364,6.2 32.908047,6.50236187 32.3484371,6.99587205 C31.4356082,7.81676715 31.2728504,8.84827293 31.2728504,9.86031633 C31.2728504,12.1777289 32.4142328,16 35.2469114,16 C36.1611255,16 37.0940394,15.5558408 37.6321791,14.8065395 L37.6321791,14.8065395 Z" id="Fill-4"></path>
                        <path d="M22.3281046,16.7 C18.6235312,16.7 16.6452268,13.8048704 16.6452268,11.18352 C16.6452268,8.12065722 19.1372688,5.5 22.679573,5.5 C26.1031098,5.5 28.2464455,8.19204778 28.2464455,11.0185593 C28.2464455,13.7792252 26.1286586,16.7 22.3281046,16.7 L22.3281046,16.7 Z M25.2249604,14.8065395 C25.7862307,14.0558479 25.9262018,13.1188737 25.9262018,12.2055323 C25.9262018,10.1397404 24.9422465,6.2 22.0451219,6.2 C21.2711232,6.2 20.502668,6.50236187 19.9413978,6.99587205 C19.0267351,7.81676715 18.8645904,8.84827293 18.8645904,9.86031633 C18.8645904,12.1777289 20.0113833,16 22.8406012,16 C23.7531851,16 24.6851709,15.5558408 25.2249604,14.8065395 L25.2249604,14.8065395 Z" id="Fill-5"></path>
                        <path d="M15.1093248,16.0080409 L11.9733618,16.7244878 C10.7027561,16.924346 9.56177576,17.1 8.3535566,17.1 C2.30483576,17.1 0,12.6581676 0,9.18174048 C0,4.93630858 3.26558834,1 8.85819432,1 C10.0414589,1 11.1796665,1.17357931 12.2166693,1.45573214 C13.8602078,1.91630514 14.6289485,2.48406855 15.1093248,2.81670461 L13.2876381,4.54281603 L12.5195906,4.71432069 L13.0672057,3.84365792 C12.3254991,3.12098707 10.9620068,1.7869851 8.37435211,1.7869851 C4.91467233,1.7869851 2.30483576,4.41072978 2.30483576,8.24123105 C2.30483576,12.3552682 5.28483242,16.2251879 10.0643339,16.2251879 C11.4687241,16.2251879 12.1917147,15.9437266 12.8481596,15.6809372 L12.8481596,12.1540269 L9.53682115,12.3317555 L11.2919622,11.3912461 L15.9390657,11.3912461 L15.3706551,11.9368799 C15.2174615,12.0668915 15.1966659,12.1111507 15.1536886,12.2854216 C15.1308135,12.4845883 15.1093248,13.1180491 15.1093248,13.3407285 L15.1093248,16.0080409" id="Fill-6"></path>
                        <path d="M73.8142584,14.8939774 L73.8142584,20.8 L72.633717,20.8 L72.633717,5.7714228 L73.8142584,5.7714228 L73.8142584,7.48310428 C74.5833046,6.37679871 75.9886122,5.5 77.6207608,5.5 C80.5482544,5.5 82.5199729,7.70642684 82.5199729,11.1991916 C82.5199729,14.6685934 80.5482544,16.921059 77.6207608,16.921059 C76.0799019,16.921059 74.6994915,16.1315279 73.8142584,14.8939774 L73.8142584,14.8939774 Z M81.309411,11.2892369 C81.309411,8.62901677 79.9231483,6.6 77.4650832,6.6 C75.9385976,6.6 74.4787527,7.79991135 73.8442789,8.84636182 L73.8442789,13.7078082 C74.4787527,14.7563419 75.9385976,16 77.4650832,16 C79.9231483,16 81.309411,13.9536234 81.309411,11.2892369 L81.309411,11.2892369 Z" id="Fill-7"></path>
                        <polygon id="Fill-8" points="84.1340555 1.6 85.3446175 1.6 85.3446175 16.7 84.1340555 16.7"></polygon>
                        <path d="M98.5057735,19.7601096 C98.7582209,19.8721396 99.1891106,19.9408697 99.4623071,19.9408697 C100.184376,19.9408697 100.687196,19.6473923 101.138835,18.6109429 L101.999922,16.6720677 L97.3493568,5.7 L98.6662332,5.7 L102.655594,15.2081173 L106.606223,5.7 L107.941774,5.7 L102.269661,18.974525 C101.681078,20.3422533 100.754976,21 99.4830562,21 C99.1012727,21 98.5977612,20.9326445 98.3031239,20.8426081 L98.5057735,19.7601096" id="Fill-9"></path>
                        <path d="M95.1741283,16.6851012 C95.0948333,16.3057462 95.0350142,15.9713056 94.9911933,15.6921445 C94.9550236,15.4136744 94.9341565,15.1289853 94.9341565,14.8394593 C94.5272477,15.4330222 93.9506198,15.9270821 93.2140106,16.316111 C92.4767058,16.707904 91.7762663,16.9 90.8156835,16.9 C89.6589497,16.9 88.7609681,16.6173839 88.1203477,16.0438599 C87.481814,15.4710268 87.1604604,14.6950418 87.1604604,13.713141 C87.1604604,12.7326221 87.6257971,11.9365984 88.5536881,11.3278337 C89.4815792,10.716305 90.6807428,10.4122682 92.1650903,10.4122682 L94.9341565,10.4122682 L94.9341565,9.05308522 C94.9341565,8.27019033 94.6656663,7.6545157 94.1293814,7.20813432 C93.5910098,6.76106195 92.8356202,6.53510729 91.8562569,6.53510729 C90.9610577,6.53510729 90.2348821,6.74171415 89.6819035,7.14387198 C89.1337939,7.55432174 88.8576525,8.06289247 88.8576525,8.67580313 L87.6424908,8.67580313 L87.6174502,8.61706874 C87.5736293,7.79064129 87.9541064,7.06578979 88.7630549,6.43975027 C89.5685255,5.81440175 90.623706,5.5 91.9223361,5.5 C93.2167929,5.5 94.2643221,5.8095648 95.0537946,6.4273124 C95.8425716,7.03884107 96.2383512,7.92262092 96.2383512,9.07796096 L96.2383512,14.4746151 C96.2383512,14.8622621 96.2571316,15.2367802 96.3058215,15.6016244 C96.3559026,15.9671597 96.4358932,16.3320039 96.5423155,16.6851012 L95.1741283,16.6851012 L95.1741283,16.6851012 Z M90.9585279,15.9 C91.9662437,15.9 92.690409,15.6749653 93.4305588,15.2297577 C94.1658438,14.7873283 94.6662268,14.2101559 94.9282329,13.511437 L94.9282329,11.4 L92.1483275,11.4 C91.0864036,11.4 90.2072585,11.6347585 89.515757,12.1084427 C88.8228656,12.5807378 88.4719025,13.1523538 88.4719025,13.8170397 C88.4719025,14.4442198 88.6942949,14.9456861 89.1362999,15.3256058 C89.5796948,15.7096929 90.1857142,15.9 90.9585279,15.9 L90.9585279,15.9 Z" id="Fill-10"></path>
                    </g>
                    <g id="Get-it-on" transform="translate(34.601896, 7.900000)" fill="#FFFFFF">
                        <path d="M0.00428448567,3.63110072 C0.00428448567,1.4770941 1.73950118,0.0915057915 3.89722959,0.0915057915 C5.34335932,0.0915057915 6.28914623,0.727902272 6.87843889,1.50721558 L5.8221596,2.07183321 C5.42188535,1.5584862 4.72071048,1.1592163 3.89722959,1.1592163 C2.42955732,1.1592163 1.33922692,2.18462856 1.33922692,3.63110072 C1.33922692,5.05642375 2.42955732,6.10298513 3.89722959,6.10298513 C4.6539981,6.10298513 5.32112186,5.78510733 5.65468374,5.48773778 L5.65468374,4.43092227 L3.43024296,4.43092227 L3.43024296,3.37410677 L6.94515126,3.37410677 L6.94515126,5.92866505 C6.22243386,6.67785688 5.17657838,7.18030888 3.89722959,7.18030888 C1.73950118,7.18030888 0.00428448567,5.77549409 0.00428448567,3.63110072" id="Fill-1"></path>
                        <polyline id="Fill-2" points="8.62778563 7.07606178 8.62778563 0.195752896 13.7808534 0.195752896 13.7808534 1.25902064 9.94722458 1.25902064 9.94722458 3.03242234 13.7019547 3.03242234 13.7019547 4.09504568 9.94722458 4.09504568 9.94722458 6.01343844 13.7808534 6.01343844 13.7808534 7.07606178 8.62778563 7.07606178"></polyline>
                        <polyline id="Fill-3" points="17.2852865 7.07606178 17.2852865 1.25902064 15.0428292 1.25902064 15.0428292 0.195752896 20.8268848 0.195752896 20.8268848 1.25902064 18.5844275 1.25902064 18.5844275 7.07606178 17.2852865 7.07606178"></polyline>
                        <polygon id="Fill-4" points="25.4541293 0.195752896 26.7161051 0.195752896 26.7161051 7.07606178 25.4541293 7.07606178"></polygon>
                        <polyline id="Fill-5" points="30.3263965 7.07606178 30.3263965 1.25902064 28.0832455 1.25902064 28.0832455 0.195752896 33.8673012 0.195752896 33.8673012 1.25902064 31.6255374 1.25902064 31.6255374 7.07606178 30.3263965 7.07606178"></polyline>
                        <path d="M38.1790518,3.63622824 C38.1790518,1.59141822 39.7662124,0.0915057915 42.017913,0.0915057915 C44.2569558,0.0915057915 45.8560711,1.59141822 45.8560711,3.63622824 C45.8560711,5.68039645 44.2569558,7.18030888 42.017913,7.18030888 C39.7662124,7.18030888 38.1790518,5.68039645 38.1790518,3.63622824 L38.1790518,3.63622824 Z M44.4889307,3.58378378 C44.4889307,2.1807183 43.5164512,1.13397683 42.0179107,1.13397683 C40.5081923,1.13397683 39.5461922,2.1807183 39.5461922,3.58378378 C39.5461922,4.97605157 40.5081923,6.03359073 42.0179107,6.03359073 C43.5164512,6.03359073 44.4889307,4.97605157 44.4889307,3.58378378 L44.4889307,3.58378378 Z" id="Fill-6"></path>
                        <polyline id="Fill-7" points="52.4891164 7.07606178 48.6263616 2.15603196 48.6263616 7.07606178 47.3283762 7.07606178 47.3283762 0.195752896 48.6603367 0.195752896 52.4447409 4.96176999 52.4447409 0.195752896 53.7434197 0.195752896 53.7434197 7.07606178 52.4891164 7.07606178"></polyline>
                    </g>
                </g>
            </g>
        </g>
    </g>
</svg>